<svg width="22" height="22" viewBox="0 0 22 22" fill="none" xmlns="http://www.w3.org/2000/svg">
<path d="M17.6 5.5C18.4752 5.5 19.3146 5.84768 19.9335 6.46655C20.5523 7.08542 20.9 7.92479 20.9 8.8C21.1917 8.8 21.4715 8.91589 21.6778 9.12218C21.8841 9.32847 22 9.60826 22 9.9V12.1C22 12.3917 21.8841 12.6715 21.6778 12.8778C21.4715 13.0841 21.1917 13.2 20.9 13.2C20.9 14.0752 20.5523 14.9146 19.9335 15.5335C19.3146 16.1523 18.4752 16.5 17.6 16.5H3.3C2.42479 16.5 1.58542 16.1523 0.966548 15.5335C0.347678 14.9146 0 14.0752 0 13.2L0 8.8C0 7.92479 0.347678 7.08542 0.966548 6.46655C1.58542 5.84768 2.42479 5.5 3.3 5.5H17.6ZM3.3 6.6C2.71652 6.6 2.15695 6.83178 1.74437 7.24437C1.33179 7.65695 1.1 8.21652 1.1 8.8V13.2C1.1 13.7835 1.33179 14.3431 1.74437 14.7556C2.15695 15.1682 2.71652 15.4 3.3 15.4H17.6C18.1835 15.4 18.7431 15.1682 19.1556 14.7556C19.5682 14.3431 19.8 13.7835 19.8 13.2V8.8C19.8 8.21652 19.5682 7.65695 19.1556 7.24437C18.7431 6.83178 18.1835 6.6 17.6 6.6H3.3ZM15.95 7.7C16.2417 7.7 16.5215 7.81589 16.7278 8.02218C16.9341 8.22847 17.05 8.50826 17.05 8.8V13.2C17.05 13.4917 16.9341 13.7715 16.7278 13.9778C16.5215 14.1841 16.2417 14.3 15.95 14.3H3.3C3.00826 14.3 2.72847 14.1841 2.52218 13.9778C2.31589 13.7715 2.2 13.4917 2.2 13.2V8.8C2.2 8.50826 2.31589 8.22847 2.52218 8.02218C2.72847 7.81589 3.00826 7.7 3.3 7.7H15.95Z" fill="white"/>
</svg>
