<svg width="22" height="22" viewBox="0 0 22 22" fill="none" xmlns="http://www.w3.org/2000/svg">
<path fill-rule="evenodd" clip-rule="evenodd" d="M11.5643 2.02766L16.9516 6.06832C17.0768 6.16225 17.1785 6.28404 17.2485 6.42405C17.3185 6.56406 17.3549 6.71845 17.3549 6.87499C17.3549 7.03153 17.3185 7.18592 17.2485 7.32593C17.1785 7.46594 17.0768 7.58774 16.9516 7.68166L12.5278 11L16.9516 14.3183C17.0768 14.4122 17.1785 14.534 17.2485 14.6741C17.3185 14.8141 17.3549 14.9685 17.3549 15.125C17.3549 15.2815 17.3185 15.4359 17.2485 15.5759C17.1785 15.7159 17.0768 15.8377 16.9516 15.9317L11.5643 19.9723C11.4268 20.0755 11.2632 20.1383 11.092 20.1537C10.9207 20.1692 10.7486 20.1366 10.5948 20.0597C10.441 19.9829 10.3117 19.8647 10.2213 19.7184C10.1309 19.5721 10.083 19.4036 10.083 19.2317V12.8333L6.04967 15.8583C5.95337 15.9306 5.84379 15.9831 5.72717 16.013C5.61056 16.0429 5.48921 16.0495 5.37004 16.0324C5.25087 16.0154 5.13622 15.9751 5.03264 15.9138C4.92906 15.8524 4.83857 15.7713 4.76634 15.675C4.69411 15.5787 4.64156 15.4691 4.61169 15.3525C4.58181 15.2359 4.5752 15.1145 4.59222 14.9954C4.60924 14.8762 4.64957 14.7615 4.71091 14.658C4.77224 14.5544 4.85337 14.4639 4.94967 14.3917L9.47159 11L4.94967 7.60833C4.85337 7.5361 4.77224 7.44561 4.71091 7.34203C4.64957 7.23845 4.60924 7.1238 4.59222 7.00463C4.5752 6.88546 4.58181 6.7641 4.61169 6.64749C4.64156 6.53088 4.69411 6.42129 4.76634 6.32499C4.83857 6.22869 4.92906 6.14756 5.03264 6.08622C5.13622 6.02489 5.25087 5.98456 5.37004 5.96754C5.48921 5.95051 5.61056 5.95713 5.72717 5.987C5.84379 6.01688 5.95337 6.06943 6.04967 6.14166L10.083 9.16666V2.76832C10.083 2.00566 10.9538 1.57024 11.5643 2.02766ZM11.9163 12.8333V17.4167L14.9716 15.125L11.9163 12.8333ZM11.9163 4.58332V9.16666L14.9716 6.87499L11.9163 4.58332Z" fill="white"/>
</svg>
