<svg width="70" height="70" viewBox="0 0 70 70" fill="none" xmlns="http://www.w3.org/2000/svg">
<path d="M53.5938 0H16.4062C7.34533 0 0 7.34533 0 16.4062V53.5938C0 62.6547 7.34533 70 16.4062 70H53.5938C62.6547 70 70 62.6547 70 53.5938V16.4062C70 7.34533 62.6547 0 53.5938 0Z" fill="#0277BD"/>
<path d="M14.6981 28.0686L15.4807 36.8028H35.0262V28.0686H14.6981ZM35.026 10.3906H13.125L13.9191 19.1248H35.026V10.3906ZM35.026 59.8393V50.7522L34.9877 50.7623L25.2604 48.1359L24.6386 41.1698H15.8709L17.0945 54.8838L34.9858 59.8505L35.026 59.8393Z" fill="#EBEBEB"/>
<path d="M45.7512 36.8028L44.7373 48.1302L34.9961 50.7596V59.8462L52.9016 54.8838L53.0329 53.4081L55.0853 30.4142L55.2983 28.0686L56.8752 10.3906H34.9961V19.1248H47.3032L46.5086 28.0686H34.9961V36.8028H45.7512Z" fill="white"/>
</svg>
