<svg width="70" height="70" viewBox="0 0 70 70" fill="none" xmlns="http://www.w3.org/2000/svg">
<g clip-path="url(#clip0_348_533)">
<path d="M53.5938 0H16.4062C7.34533 0 0 7.34533 0 16.4062V53.5938C0 62.6547 7.34533 70 16.4062 70H53.5938C62.6547 70 70 62.6547 70 53.5938V16.4062C70 7.34533 62.6547 0 53.5938 0Z" fill="#242938"/>
<path d="M35.0003 8.20312C19.9005 8.20312 7.65625 20.4449 7.65625 35.5472C7.65625 47.6284 15.4911 57.878 26.3558 61.4936C27.7222 61.7468 28.2239 60.9005 28.2239 60.1784C28.2239 59.5262 28.1985 57.3724 28.1868 55.0875C20.5797 56.7416 18.9746 51.8613 18.9746 51.8613C17.7305 48.7006 15.9384 47.8603 15.9384 47.8603C13.4575 46.1631 16.1254 46.1981 16.1254 46.1981C18.8713 46.3909 20.3172 49.0159 20.3172 49.0159C22.756 53.1962 26.714 51.9876 28.2743 51.2889C28.5198 49.5214 29.2283 48.3153 30.0103 47.6325C23.937 46.941 17.5525 44.5963 17.5525 34.119C17.5525 31.1336 18.6205 28.6943 20.3697 26.7794C20.0856 26.0906 19.1496 23.3095 20.6344 19.5431C20.6344 19.5431 22.9307 18.8084 28.1561 22.3459C30.3373 21.7402 32.6763 21.4364 35.0003 21.426C37.3239 21.4364 39.6651 21.7402 41.8502 22.3461C47.0693 18.8081 49.3623 19.5434 49.3623 19.5434C50.8506 23.3095 49.9144 26.0909 49.6303 26.7794C51.3836 28.6943 52.4445 31.1336 52.4445 34.119C52.4445 44.6214 46.0477 46.9339 39.9588 47.6107C40.9396 48.4594 41.8135 50.1233 41.8135 52.6745C41.8135 56.333 41.7818 59.2777 41.7818 60.1784C41.7818 60.906 42.274 61.7586 43.66 61.4901C54.5188 57.8703 62.3438 47.6243 62.3438 35.5472C62.3438 20.4452 50.1011 8.20312 35.0003 8.20312ZM17.8976 47.1551C17.8374 47.291 17.6236 47.3318 17.4289 47.2385C17.2304 47.1494 17.1191 46.964 17.1834 46.8278C17.2421 46.6878 17.4565 46.649 17.6542 46.7428C17.853 46.8319 17.9662 47.0189 17.8976 47.1551ZM19.2426 48.3552C19.1122 48.4764 18.8571 48.42 18.6843 48.2289C18.5054 48.0383 18.4718 47.7835 18.6041 47.6607C18.7384 47.5398 18.9859 47.5964 19.165 47.787C19.3438 47.9801 19.3788 48.233 19.2426 48.3552ZM20.1652 49.8909C19.9976 50.0073 19.7236 49.8982 19.5543 49.6549C19.3867 49.4118 19.3867 49.1203 19.5579 49.0033C19.7277 48.8865 19.9976 48.9915 20.1693 49.233C20.3364 49.4802 20.3364 49.7719 20.1652 49.8909ZM21.7257 51.6693C21.5759 51.8345 21.2568 51.7902 21.023 51.5646C20.784 51.3442 20.7173 51.0314 20.8677 50.8659C21.0194 50.7002 21.3404 50.747 21.5759 50.9707C21.8132 51.1905 21.8857 51.5058 21.7257 51.6693ZM23.7426 52.2695C23.6764 52.4839 23.3691 52.5812 23.0593 52.4902C22.7503 52.3964 22.5477 52.1456 22.6103 51.9291C22.6745 51.7136 22.9832 51.6121 23.2952 51.7095C23.6042 51.8027 23.8068 52.0518 23.7426 52.2695ZM26.0378 52.5243C26.0455 52.7496 25.783 52.9367 25.4579 52.9408C25.1308 52.9482 24.8664 52.7655 24.8629 52.5438C24.8629 52.316 25.1196 52.1309 25.4464 52.1254C25.7718 52.1191 26.0378 52.3001 26.0378 52.5243ZM28.2926 52.4379C28.3317 52.6578 28.1058 52.8839 27.7829 52.9441C27.4654 53.002 27.1715 52.8661 27.1313 52.6479C27.0919 52.4223 27.3219 52.1965 27.6388 52.138C27.9623 52.0819 28.2516 52.2143 28.2926 52.4379Z" fill="white"/>
</g>
<defs>
<clipPath id="clip0_348_533">
<rect width="70" height="70" fill="white"/>
</clipPath>
</defs>
</svg>
