<svg width="70" height="26" viewBox="0 0 70 26" fill="none" xmlns="http://www.w3.org/2000/svg">
<g clip-path="url(#clip0_348_579)">
<path d="M20.3849 12.1222C20.3849 12.1222 20.3849 12.1293 20.3849 12.1336L19.4645 16.1701C19.4148 16.3984 19.1893 16.5658 18.9284 16.5658H17.8179C17.7356 16.5658 17.6618 16.6211 17.6391 16.7005C16.6137 20.2165 15.2252 22.6333 13.3913 24.0842C11.8311 25.3196 9.90793 25.8955 7.33938 25.8955C5.03037 25.8955 3.47448 25.1451 2.15404 23.6645C0.40952 21.7072 -0.312399 18.5032 0.12444 14.6425C0.91302 7.39501 4.63183 0.0822101 11.7957 0.0822101C13.9743 0.0623538 15.6847 0.741724 16.8747 2.09763C18.1327 3.53154 18.7724 5.69163 18.7752 8.51831C18.7709 8.77503 18.5597 8.9821 18.3057 8.9821H13.058C12.8722 8.9821 12.7063 8.81332 12.7091 8.62752C12.6665 6.6731 12.0921 5.71998 10.9518 5.71998C8.94065 5.71998 7.75353 8.48002 7.1238 10.0104C6.24445 12.1477 5.79767 14.4682 5.88561 16.78C5.92674 17.8565 6.09836 19.3698 7.10962 19.9967C8.00599 20.5527 9.2853 20.1839 10.0597 19.5684C10.8341 18.9528 11.4567 17.8877 11.7191 16.9161C11.756 16.7814 11.7589 16.6765 11.7234 16.6296C11.6865 16.5814 11.5844 16.5701 11.5064 16.5701H10.159C10.0143 16.5701 9.87106 16.5034 9.78454 16.3956C9.71221 16.3048 9.68384 16.1928 9.70937 16.0822L10.6313 12.0385C10.6767 11.8315 10.8625 11.6755 11.0908 11.6472V11.6372H19.9339C19.9553 11.6372 19.9765 11.6372 19.9964 11.6414C20.2262 11.6712 20.3879 11.8868 20.3836 12.1222H20.3849Z" fill="#FFFCE1"/>
<path d="M35.6115 7.483C35.6072 7.73546 35.3959 7.94253 35.142 7.94253H30.3084C29.9921 7.94253 29.7269 7.68298 29.7269 7.3667C29.7269 5.94129 29.239 5.24774 28.2406 5.24774C27.242 5.24774 26.5981 5.86754 26.5797 6.94972C26.5584 8.1567 27.2335 9.25304 29.1568 11.138C31.6884 13.5378 32.7025 15.6638 32.6543 18.4735C32.5748 23.0178 29.517 25.9551 24.865 25.9551C22.4892 25.9551 20.6738 25.3126 19.4669 24.0461C18.2415 22.7595 17.6798 20.8718 17.7975 18.4352C17.8032 18.1827 18.013 17.9771 18.267 17.9771H23.2665C23.4027 17.9771 23.5374 18.0437 23.6282 18.1572C23.7062 18.2551 23.7388 18.3756 23.719 18.4891C23.6636 19.3684 23.8154 20.0251 24.1572 20.3882C24.3771 20.6236 24.682 20.7428 25.0635 20.7428C25.9869 20.7428 26.5287 20.0833 26.5484 18.9344C26.5655 17.9416 26.2548 17.0708 24.5615 15.3107C22.3744 13.1506 20.4128 10.9196 20.4738 7.41066C20.5093 5.37681 21.3092 3.51599 22.7262 2.17143C24.2238 0.750285 26.2734 0 28.6518 0C31.0346 0.0170197 32.8401 0.703481 34.0187 2.04094C35.135 3.30891 35.6725 5.13996 35.6129 7.483H35.6115Z" fill="#FFFCE1"/>
<path d="M50.5951 25.0998L50.6262 0.933241C50.6305 0.679363 50.4277 0.47229 50.1738 0.47229H42.6923C42.4411 0.47229 42.3306 0.69071 42.2582 0.835378L31.4267 24.9523V24.9566C31.4267 24.9566 31.4237 24.9608 31.4224 24.9622C31.3018 25.2586 31.5301 25.5764 31.8479 25.5764H37.0771C37.3593 25.5764 37.5467 25.4899 37.6388 25.3098L38.677 22.788C38.8046 22.4518 38.8288 22.4207 39.1918 22.4207H44.1886C44.536 22.4207 44.5432 22.4277 44.5374 22.771L44.4254 25.1154C44.4211 25.3693 44.624 25.5764 44.8779 25.5764H50.161C50.2958 25.5764 50.422 25.5196 50.5056 25.419C50.5808 25.3295 50.612 25.2162 50.5951 25.0998ZM41.3391 17.0311C41.2909 17.0311 41.2526 17.0296 41.2215 17.0268C41.1434 17.0198 41.0909 16.9446 41.1108 16.868C41.1207 16.8325 41.135 16.7857 41.1562 16.7275L44.9034 7.3596C44.936 7.26741 44.9771 7.17663 45.0197 7.0887C45.0807 6.96248 45.1544 6.95396 45.1771 7.04758C45.197 7.12558 44.7473 16.6665 44.7473 16.6665C44.7119 17.0239 44.6963 17.0382 44.3474 17.068L41.3434 17.0325H41.3363L41.3391 17.0311Z" fill="#FFFCE1"/>
<path d="M61.252 0.472258H57.2808C57.0709 0.472258 56.8354 0.584305 56.7801 0.836764C56.7801 0.836764 51.2529 25.0842 51.2529 25.087C51.2289 25.1991 51.2544 25.3097 51.3281 25.4019C51.4146 25.5096 51.5579 25.5764 51.7026 25.5764H56.6666C56.9332 25.5764 57.1163 25.4444 57.1658 25.2147C57.1658 25.2147 57.7672 22.4744 57.7686 22.466C57.8112 22.2519 57.7374 22.0859 57.5474 21.9851C57.4581 21.9384 57.3686 21.8915 57.2808 21.8448L56.4199 21.3923L55.5631 20.9413C55.4526 20.8831 55.3419 20.825 55.2327 20.7668C55.1774 20.7385 55.1434 20.6818 55.1448 20.6194C55.1462 20.5271 55.2228 20.452 55.3149 20.452L58.0353 20.4648C58.8494 20.4689 59.6635 20.4109 60.4635 20.262C66.097 19.211 69.8384 14.6511 69.9463 8.44742C70.0384 3.15287 67.1139 0.469421 61.2563 0.469421L61.252 0.472258ZM59.9003 14.9036H59.794C59.5557 14.9036 59.5131 14.8766 59.5061 14.868C59.5018 14.8624 61.0747 7.88434 61.0762 7.87442C61.1158 7.67301 61.1145 7.55671 60.991 7.48863C60.8336 7.4007 58.5374 6.1767 58.5374 6.1767C58.482 6.14691 58.4494 6.09018 58.4509 6.02778C58.4522 5.937 58.5274 5.86183 58.6197 5.86183H62.2506C63.3809 5.89729 64.0107 6.91847 63.9809 8.66299C63.9284 11.684 62.5072 14.7971 59.9003 14.9036Z" fill="#FFFCE1"/>
<path d="M65.2918 25.5764C66.1088 25.5764 66.7483 24.9481 66.7483 24.1013C66.7483 23.2546 66.1088 22.6263 65.2918 22.6263C64.4749 22.6263 63.8281 23.2546 63.8281 24.1013C63.8281 24.9481 64.4734 25.5764 65.2918 25.5764ZM64.1755 24.0956C64.1755 23.3766 64.6025 22.9057 65.2918 22.9057C65.981 22.9057 66.4009 23.3752 66.4009 24.0956C66.4009 24.8162 65.981 25.2899 65.2918 25.2899C64.6025 25.2899 64.1755 24.8204 64.1755 24.0956ZM64.6522 24.8871H65.1159V24.3198H65.2507C65.5981 24.3198 65.4464 24.8204 65.5315 24.8871H66.0123V24.8629C65.9215 24.8389 66.0676 24.2106 65.6649 24.1439V24.1367C65.8606 24.0956 65.9868 23.9538 65.9868 23.7411C65.9868 23.4362 65.7669 23.2716 65.4124 23.2716H64.6494V24.8871H64.6522ZM65.1159 23.978V23.5992H65.2748C65.4336 23.5992 65.5244 23.6489 65.5244 23.7879C65.5244 23.9155 65.4336 23.9765 65.2748 23.9765H65.1159V23.978Z" fill="#FFFCE1"/>
</g>
<defs>
<clipPath id="clip0_348_579">
<rect width="70" height="25.9551" fill="white"/>
</clipPath>
</defs>
</svg>
