<svg width="70" height="70" viewBox="0 0 70 70" fill="none" xmlns="http://www.w3.org/2000/svg">
<path d="M53.5938 0H16.4062C7.34533 0 0 7.34533 0 16.4062V53.5938C0 62.6547 7.34533 70 16.4062 70H53.5938C62.6547 70 70 62.6547 70 53.5938V16.4062C70 7.34533 62.6547 0 53.5938 0Z" fill="#E14E1D"/>
<path d="M13.125 10.3906L15.4793 36.8028H45.7516L44.7357 48.1313L34.9888 50.7667L25.2602 48.1351L24.6096 40.8611H15.843L17.0967 54.8833L34.9869 59.8522L52.8998 54.8833L55.3014 28.0697H23.4675L22.6682 19.1256H56.0927L56.875 10.3906H13.125Z" fill="white"/>
<path d="M35 10.3906H13.125L15.4793 36.8028H35V28.0697H23.4675L22.6682 19.1256H35V10.3906ZM35 50.7629L34.9888 50.7667L25.2602 48.1351L24.6096 40.8611H15.843L17.0967 54.8833L34.9869 59.8522L35.0003 59.8484L35 50.7629Z" fill="#EBEBEB"/>
</svg>
