<svg width="50" height="50" viewBox="0 0 50 50" fill="none" xmlns="http://www.w3.org/2000/svg">
<path d="M38.2812 0H11.7188C5.24666 0 0 5.24666 0 11.7188V38.2812C0 44.7533 5.24666 50 11.7188 50H38.2812C44.7533 50 50 44.7533 50 38.2812V11.7188C50 5.24666 44.7533 0 38.2812 0Z" fill="#F0DB4F"/>
<path d="M13.1466 41.7835L16.9729 39.4679C17.7111 40.7767 18.3826 41.8841 19.9933 41.8841C21.5372 41.8841 22.5107 41.2802 22.5107 38.931V22.9548H27.2095V38.9974C27.2095 43.864 24.3568 46.0792 20.1947 46.0792C16.4359 46.0792 14.254 44.1326 13.1465 41.7832" fill="#323330"/>
<path d="M29.7617 41.2801L33.5875 39.0651C34.5947 40.7098 35.9037 41.918 38.2193 41.918C40.1664 41.918 41.4078 40.9446 41.4078 39.602C41.4078 37.991 40.1324 37.4203 37.9844 36.4809L36.81 35.9772C33.4199 34.5342 31.1711 32.7217 31.1711 28.8955C31.1711 25.3713 33.8563 22.6862 38.0518 22.6862C41.0389 22.6862 43.1869 23.7268 44.7307 26.4453L41.0723 28.7948C40.2666 27.3516 39.3943 26.7811 38.0518 26.7811C36.6756 26.7811 35.8029 27.6537 35.8029 28.7948C35.8029 30.2043 36.6756 30.775 38.6893 31.6479L39.8639 32.1512C43.8578 33.8631 46.1066 35.608 46.1066 39.5348C46.1066 43.7641 42.784 46.0797 38.3201 46.0797C33.957 46.0797 31.1377 43.9989 29.7617 41.2801Z" fill="#323330"/>
</svg>
