<svg width="24" height="24" viewBox="0 0 24 24" fill="none" xmlns="http://www.w3.org/2000/svg">
<g clip-path="url(#clip0_284_480)">
<path fill-rule="evenodd" clip-rule="evenodd" d="M6.59619 1.24692C9.15749 -0.0280833 12.0926 -0.337635 14.8635 0.375213C17.4029 1.02854 19.6488 2.50057 21.2594 4.55305C21.5032 4.8636 21.4204 5.31036 21.0958 5.53497C20.7712 5.75958 20.3278 5.67674 20.0816 5.36823C18.6684 3.59743 16.7137 2.32735 14.5072 1.75967C12.0692 1.13249 9.48688 1.40472 7.23333 2.52653C4.97973 3.64836 3.20583 5.54472 2.23661 7.86802C2.08839 8.22331 1.96066 8.58499 1.85318 8.95128C2.05337 8.84021 2.27518 8.72314 2.51232 8.60794C3.45459 8.15023 4.79697 7.63893 5.99093 7.79895C6.62619 7.8841 7.13402 8.16808 7.50594 8.60775C7.86234 9.02909 8.05992 9.55248 8.17493 10.0759C8.40086 11.1041 8.35373 12.3776 8.31453 13.4821C8.27267 14.6611 8.24267 15.6277 8.40663 16.2646C8.48516 16.5696 8.58139 16.6803 8.63381 16.7185C8.66507 16.7414 8.77257 16.8084 9.09722 16.7418C9.45726 16.6678 9.72333 16.395 9.86552 15.6246C10.0083 14.8512 9.96389 13.8501 9.90335 12.7975C9.87408 12.289 9.84179 11.7685 9.83488 11.2977C9.82806 10.8332 9.84442 10.3639 9.9313 9.96301C10.0136 9.58349 10.1957 9.09312 10.6644 8.82299C11.1535 8.54118 11.699 8.64065 12.1601 8.83697C12.9861 9.18865 13.3509 9.98478 13.5649 10.3692C13.8219 10.8308 13.9204 10.8903 14.066 10.9001C14.0667 10.8615 14.0664 10.8131 14.0627 10.7533C14.053 10.5967 14.0281 10.4132 13.9955 10.185C13.9338 9.7548 13.8436 9.17861 13.8707 8.60507C13.8985 8.01667 14.0511 7.36463 14.5226 6.80017C15.0135 6.21253 15.6324 5.89634 16.2971 5.88425C16.9422 5.87257 17.5302 6.14861 17.9874 6.54667C18.89 7.33259 19.4496 8.73223 19.1143 10.1499C18.975 10.7387 18.7671 11.1867 18.4963 11.5545C18.2303 11.9156 17.9264 12.1669 17.6618 12.3752C17.1487 12.7791 16.6948 13.0913 16.2699 13.9361C15.8561 14.7588 15.8875 15.4985 16.1651 16.0623C16.4464 16.6337 17.0216 17.1071 17.8505 17.3033C18.2943 17.4083 18.7719 17.2694 19.3112 16.8444C19.8545 16.4161 20.374 15.7599 20.8339 15.0331C21.2886 14.3142 21.6596 13.5676 21.9177 12.9965C22.0463 12.7122 22.1457 12.4741 22.2126 12.3082C22.2459 12.2254 22.2712 12.1608 22.2878 12.1176C22.296 12.0961 22.3021 12.0797 22.3061 12.0693C22.308 12.0641 22.3095 12.0603 22.3103 12.058C22.3105 12.0569 22.3112 12.0557 22.3112 12.0557C22.3998 11.8143 22.6027 11.6479 22.8362 11.5952C22.9112 11.5655 22.9922 11.5479 23.0773 11.5452C23.4718 11.5328 23.804 11.8427 23.7926 12.2373C23.7185 14.8452 22.7884 17.3643 21.1354 19.3999C19.3318 21.6208 16.7883 23.1175 13.971 23.6158C11.1536 24.1141 8.25097 23.5806 5.79499 22.1128C3.33901 20.6452 1.49408 18.3416 0.598246 15.6244C-0.297567 12.9072 -0.184228 9.95817 0.917324 7.31764C2.01888 4.67714 4.03495 2.52194 6.59619 1.24692ZM16.3236 7.34356C16.1405 7.34691 15.9017 7.42522 15.6424 7.73562C15.4415 7.97615 15.3473 8.28152 15.3287 8.67394C15.3095 9.08122 15.3732 9.50958 15.4404 9.97821C15.472 10.1995 15.5054 10.4393 15.5193 10.6632C15.5328 10.882 15.5322 11.142 15.466 11.3933C15.3952 11.6623 15.2404 11.9491 14.9369 12.1445C14.6503 12.3291 14.322 12.3727 14.0185 12.3594C12.9877 12.3141 12.5415 11.5319 12.2895 11.0792C11.9849 10.5321 11.8544 10.2932 11.5884 10.1799C11.5033 10.1437 11.4428 10.126 11.4025 10.117C11.3897 10.15 11.3734 10.1996 11.3577 10.272C11.3072 10.5048 11.288 10.8385 11.2944 11.2763C11.3007 11.7079 11.3304 12.1897 11.3606 12.7136C11.4188 13.7258 11.4813 14.9109 11.3008 15.8894C11.1196 16.871 10.632 17.9163 9.3908 18.1713C8.80303 18.292 8.23682 18.2357 7.77341 17.8976C7.33124 17.5749 7.11147 17.0871 6.99339 16.6285C6.76411 15.7379 6.81749 14.5168 6.85606 13.4303C6.89726 12.2695 6.92764 11.1997 6.74956 10.3892C6.66257 9.99331 6.53773 9.72335 6.39141 9.55038C6.26057 9.39573 6.08505 9.28429 5.79705 9.24568C5.06598 9.14771 4.06728 9.4752 3.14985 9.92086C2.71217 10.1335 2.32914 10.3548 2.05528 10.5232C1.91876 10.6072 1.81034 10.6773 1.73722 10.7257C1.70077 10.7499 1.67314 10.7686 1.65519 10.7808C1.64622 10.787 1.63945 10.7915 1.63546 10.7942C1.63354 10.7955 1.63226 10.7966 1.63155 10.7971C1.5834 10.8309 1.53222 10.8578 1.47982 10.8785C1.3389 12.3178 1.49612 13.782 1.95598 15.1768C2.74419 17.5676 4.36743 19.5944 6.52834 20.8857C8.68926 22.1771 11.2431 22.6465 13.722 22.208C16.2009 21.7697 18.4389 20.4527 20.0259 18.4986C20.2741 18.1929 20.503 17.8745 20.7136 17.5459C20.5532 17.7049 20.3871 17.8548 20.2146 17.9908C19.4798 18.5699 18.5523 18.969 17.5146 18.7235C16.3146 18.4396 15.3522 17.7156 14.8556 16.707C14.3554 15.6908 14.3687 14.4677 14.966 13.28C15.5524 12.1144 16.2518 11.6279 16.759 11.2286C17.0045 11.0354 17.1775 10.8837 17.3209 10.6889C17.4594 10.5008 17.5934 10.2395 17.694 9.81394C17.8975 8.95404 17.5467 8.09842 17.029 7.64762C16.776 7.42739 16.526 7.33992 16.3236 7.34356Z" fill="white" fill-opacity="0.8"/>
</g>
<defs>
<clipPath id="clip0_284_480">
<rect width="23.7929" height="23.7977" fill="white"/>
</clipPath>
</defs>
</svg>
