<svg width="500" height="500" viewBox="0 0 500 500" fill="none" xmlns="http://www.w3.org/2000/svg">
<path fill-rule="evenodd" clip-rule="evenodd" d="M137.421 25.9776C190.781 -0.585069 251.929 -7.03407 309.655 7.81694C362.561 21.428 409.35 52.0952 442.904 94.8553C447.982 101.325 446.259 110.632 439.496 115.312C432.733 119.991 423.496 118.265 418.367 111.838C388.925 74.9465 348.203 48.4864 302.232 36.6598C251.442 23.5936 197.643 29.265 150.694 52.636C103.744 76.0075 66.7881 115.515 46.596 163.917C43.5081 171.319 40.8471 178.854 38.6079 186.485C42.7785 184.171 47.3996 181.732 52.3399 179.332C71.9706 169.797 99.9368 159.144 124.811 162.478C138.046 164.252 148.625 170.168 156.374 179.328C163.799 188.106 167.915 199.01 170.311 209.914C175.018 231.336 174.036 257.867 173.219 280.878C172.347 305.439 171.722 325.578 175.138 338.846C176.774 345.201 178.779 347.506 179.871 348.303C180.522 348.779 182.762 350.176 189.525 348.787C197.026 347.246 202.569 341.562 205.532 325.512C208.506 309.399 207.581 288.544 206.32 266.615C205.71 256.021 205.037 245.177 204.893 235.369C204.751 225.691 205.092 215.914 206.902 207.563C208.616 199.656 212.411 189.44 222.176 183.812C232.365 177.941 243.729 180.014 253.336 184.104C270.543 191.43 278.143 208.016 282.603 216.026C287.956 225.641 290.008 226.881 293.041 227.085C293.056 226.28 293.05 225.272 292.972 224.027C292.771 220.764 292.253 216.941 291.572 212.188C290.288 203.225 288.408 191.221 288.972 179.272C289.551 167.014 292.731 153.43 302.554 141.67C312.781 129.428 325.676 122.84 339.522 122.589C352.963 122.345 365.213 128.096 374.738 136.389C393.543 152.762 405.2 181.922 398.214 211.456C395.312 223.723 390.982 233.055 385.339 240.718C379.799 248.242 373.466 253.477 367.954 257.817C357.265 266.231 347.809 272.736 338.957 290.335C330.336 307.475 330.99 322.886 336.772 334.631C342.632 346.535 354.616 356.399 371.886 360.485C381.132 362.672 391.082 359.78 402.318 350.925C413.636 342.003 424.459 328.331 434.039 313.19C443.513 298.213 451.241 282.659 456.618 270.761C459.298 264.838 461.368 259.876 462.763 256.421C463.456 254.696 463.982 253.35 464.329 252.45C464.5 252.001 464.627 251.661 464.711 251.443C464.75 251.336 464.781 251.255 464.798 251.208C464.803 251.185 464.816 251.161 464.816 251.161C466.662 246.131 470.89 242.665 475.754 241.567C477.316 240.947 479.004 240.582 480.776 240.526C488.996 240.266 495.917 246.723 495.68 254.943C494.136 309.275 474.759 361.757 440.32 404.164C402.746 450.434 349.757 481.614 291.062 491.996C232.367 502.377 171.895 491.263 120.729 460.684C69.5627 430.108 31.1266 382.118 12.4635 325.508C-6.19931 268.9 -3.83808 207.462 19.1109 152.451C42.06 97.4404 84.0614 52.5404 137.421 25.9776ZM340.075 152.991C336.261 153.061 331.286 154.692 325.884 161.159C321.698 166.17 319.735 172.532 319.348 180.707C318.947 189.192 320.275 198.116 321.674 207.879C322.334 212.49 323.03 217.485 323.319 222.151C323.6 226.707 323.588 232.126 322.209 237.361C320.732 242.965 317.507 248.94 311.185 253.011C305.214 256.855 298.375 257.764 292.052 257.487C270.578 256.544 261.281 240.248 256.03 230.816C249.686 219.419 246.968 214.442 241.425 212.081C239.651 211.326 238.391 210.957 237.553 210.771C237.285 211.458 236.946 212.492 236.619 214C235.568 218.85 235.166 225.801 235.3 234.923C235.432 243.915 236.051 253.953 236.679 264.867C237.892 285.954 239.195 310.643 235.432 331.029C231.658 351.479 221.499 373.257 195.642 378.568C183.396 381.083 171.6 379.911 161.946 372.867C152.734 366.145 148.156 355.982 145.696 346.427C140.919 327.872 142.031 302.432 142.835 279.798C143.693 255.614 144.326 233.326 140.616 216.442C138.803 208.194 136.203 202.57 133.154 198.966C130.428 195.744 126.772 193.423 120.772 192.618C105.541 190.577 84.7351 197.4 65.6219 206.685C56.5035 211.114 48.5237 215.725 42.8183 219.234C39.9742 220.983 37.7154 222.444 36.1922 223.453C35.4327 223.956 34.857 224.346 34.4832 224.601C34.2963 224.729 34.1552 224.822 34.072 224.879C34.032 224.907 34.0055 224.929 33.9906 224.939C32.9876 225.644 31.9213 226.204 30.8297 226.636C27.8937 256.62 31.1692 287.125 40.7495 316.184C57.1706 365.992 90.9881 408.216 136.007 435.119C181.026 462.022 234.232 471.803 285.875 462.667C337.519 453.535 384.144 426.099 417.206 385.387C422.376 379.02 427.147 372.386 431.533 365.539C428.192 368.852 424.732 371.975 421.138 374.807C405.83 386.872 386.506 395.187 364.887 390.073C339.888 384.158 319.838 369.075 309.493 348.063C299.071 326.892 299.347 301.411 311.793 276.667C324.008 252.383 338.579 242.248 349.146 233.93C354.26 229.904 357.864 226.744 360.852 222.686C363.737 218.768 366.529 213.323 368.626 204.457C372.864 186.543 365.556 168.717 354.77 159.325C349.5 154.737 344.292 152.915 340.075 152.991Z" fill="#1F6368"/>
</svg>
