<svg width="22" height="22" viewBox="0 0 22 22" fill="none" xmlns="http://www.w3.org/2000/svg">
<path d="M16.5 12.2834L14.7583 14.025C14.5903 14.1931 14.3764 14.2771 14.1167 14.2771C13.8569 14.2771 13.6431 14.1931 13.475 14.025C13.3069 13.857 13.2229 13.6431 13.2229 13.3834C13.2229 13.1236 13.3069 12.9097 13.475 12.7417L15.2167 11L13.475 9.25836C13.3069 9.0903 13.2229 8.87641 13.2229 8.61669C13.2229 8.35697 13.3069 8.14308 13.475 7.97502C13.6431 7.80697 13.8569 7.72294 14.1167 7.72294C14.3764 7.72294 14.5903 7.80697 14.7583 7.97502L16.5 9.71669L18.2417 7.97502C18.4097 7.80697 18.6236 7.72294 18.8833 7.72294C19.1431 7.72294 19.3569 7.80697 19.525 7.97502C19.6931 8.14308 19.7771 8.35697 19.7771 8.61669C19.7771 8.87641 19.6931 9.0903 19.525 9.25836L17.7833 11L19.525 12.7417C19.6931 12.9097 19.7771 13.1236 19.7771 13.3834C19.7771 13.6431 19.6931 13.857 19.525 14.025C19.3569 14.1931 19.1431 14.2771 18.8833 14.2771C18.6236 14.2771 18.4097 14.1931 18.2417 14.025L16.5 12.2834ZM6.41667 13.75H3.66667C3.40694 13.75 3.18939 13.662 3.014 13.486C2.83861 13.31 2.75061 13.0925 2.75 12.8334V9.16669C2.75 8.90697 2.838 8.68941 3.014 8.51403C3.19 8.33864 3.40756 8.25064 3.66667 8.25003H6.41667L9.44167 5.22502C9.73194 4.93475 10.0644 4.86966 10.439 5.02978C10.8136 5.18989 11.0006 5.4765 11 5.88961V16.1104C11 16.5229 10.813 16.8096 10.439 16.9703C10.065 17.131 9.73256 17.0659 9.44167 16.775L6.41667 13.75Z" fill="white"/>
</svg>
