<svg width="70" height="70" viewBox="0 0 70 70" fill="none" xmlns="http://www.w3.org/2000/svg">
<g clip-path="url(#clip0_348_551)">
<path d="M53.5938 0H16.4062C7.34533 0 0 7.34533 0 16.4062V53.5938C0 62.6547 7.34533 70 16.4062 70H53.5938C62.6547 70 70 62.6547 70 53.5938V16.4062C70 7.34533 62.6547 0 53.5938 0Z" fill="#001E36"/>
<path d="M15.75 48.6828V18.6703C15.75 18.4661 15.8375 18.3494 16.0417 18.3494C16.5375 18.3494 17.0042 18.3494 17.675 18.3203C18.375 18.2911 19.1042 18.2911 19.8917 18.2619C20.6792 18.2328 21.525 18.2328 22.4292 18.2036C23.3333 18.1744 24.2083 18.1744 25.0833 18.1744C27.475 18.1744 29.4582 18.4661 31.0917 19.0786C32.55 19.5744 33.8917 20.3911 35 21.4703C35.9332 22.4036 36.6625 23.5411 37.1292 24.7953C37.5667 26.0203 37.8 27.2744 37.8 28.587C37.8 31.0953 37.2167 33.166 36.05 34.7995C34.8832 36.4328 33.25 37.6578 31.3542 38.3578C29.3707 39.087 27.1833 39.3495 24.7917 39.3495C24.0917 39.3495 23.625 39.3495 23.3333 39.3203C23.0417 39.291 22.6333 39.291 22.0792 39.291V48.6535C22.1083 48.8578 21.9625 49.0328 21.7583 49.062C21.7292 49.062 21.7 49.062 21.6417 49.062H16.1C15.8667 49.062 15.75 48.9453 15.75 48.6828ZM22.1083 23.9786V33.7785C22.5167 33.8078 22.8958 33.837 23.2458 33.837H24.7917C25.9292 33.837 27.0667 33.662 28.1457 33.312C29.0792 33.0495 29.8957 32.4953 30.5375 31.766C31.15 31.037 31.4417 30.0453 31.4417 28.762C31.4707 27.8578 31.2375 26.9536 30.7707 26.1661C30.275 25.4078 29.575 24.8244 28.7292 24.5036C27.65 24.0661 26.4833 23.8911 25.2875 23.9203C24.5292 23.9203 23.8583 23.9203 23.3042 23.9494C22.7208 23.9203 22.3125 23.9494 22.1083 23.9786Z" fill="#31A8FF"/>
<path d="M55.9999 31.9996C55.1249 31.5328 54.1917 31.2121 53.1999 31.0078C52.1207 30.7746 51.0417 30.6285 49.9332 30.6285C49.3499 30.5996 48.7374 30.6871 48.1832 30.8328C47.8042 30.9203 47.4832 31.1246 47.2792 31.416C47.1332 31.6496 47.0457 31.941 47.0457 32.2035C47.0457 32.466 47.1624 32.7285 47.3374 32.9621C47.5999 33.2828 47.9499 33.5453 48.3292 33.7496C48.9999 34.0996 49.6999 34.4203 50.3999 34.7121C51.9749 35.2371 53.4917 35.966 54.8917 36.841C55.8542 37.4535 56.6417 38.2703 57.1957 39.2621C57.6624 40.1953 57.8957 41.216 57.8667 42.266C57.8957 43.6371 57.4874 45.0078 56.7292 46.1453C55.9124 47.3121 54.7749 48.216 53.4624 48.741C52.0332 49.3535 50.2832 49.6746 48.1832 49.6746C46.8417 49.6746 45.5292 49.5578 44.2167 49.2953C43.1957 49.1203 42.1749 48.7996 41.2417 48.3621C41.0374 48.2453 40.8917 48.041 40.9207 47.8078V42.7328C40.9207 42.6453 40.9499 42.5285 41.0374 42.4703C41.1249 42.4121 41.2124 42.441 41.2999 42.4996C42.4374 43.1703 43.6332 43.6371 44.9167 43.9285C46.0249 44.2203 47.1917 44.366 48.3582 44.366C49.4667 44.366 50.2542 44.2203 50.7792 43.9578C51.2457 43.7535 51.5667 43.2578 51.5667 42.7328C51.5667 42.3246 51.3332 41.9453 50.8667 41.566C50.3999 41.1871 49.4374 40.7496 48.0082 40.1953C46.5207 39.6703 45.1499 38.9703 43.8667 38.0953C42.9624 37.4535 42.2042 36.6078 41.6499 35.616C41.1832 34.6828 40.9499 33.6621 40.9792 32.641C40.9792 31.3871 41.3292 30.191 41.9707 29.1121C42.6999 27.9453 43.7792 27.012 45.0332 26.4286C46.4042 25.7286 48.1249 25.4078 50.1957 25.4078C51.3917 25.4078 52.6167 25.4953 53.8124 25.6703C54.6874 25.787 55.5332 26.0203 56.3207 26.3411C56.4374 26.3703 56.5542 26.487 56.6124 26.6036C56.6417 26.7203 56.6707 26.837 56.6707 26.9536V31.7078C56.6707 31.8246 56.6124 31.941 56.5249 31.9996C56.2624 32.0578 56.1167 32.0578 55.9999 31.9996Z" fill="#31A8FF"/>
</g>
<defs>
<clipPath id="clip0_348_551">
<rect width="70" height="70" fill="white"/>
</clipPath>
</defs>
</svg>
