<svg width="86" height="85" viewBox="0 0 86 85" fill="none" xmlns="http://www.w3.org/2000/svg">
<g filter="url(#filter0_d_283_465)">
<g clip-path="url(#clip0_283_465)">
<path d="M17.8127 4H68.1873C75.8252 4 82 10.1748 82 17.8127V66.2373C82 73.8752 75.8252 80.05 68.1873 80.05H17.8127C10.1748 80.05 4 73.8752 4 66.2373V17.8127C4 10.1748 10.1748 4 17.8127 4Z" fill="#001E36"/>
<path d="M31.95 23.3373C30.975 23.3373 30 23.3373 28.9927 23.3702C27.9848 23.4025 27.0421 23.4025 26.1646 23.4355C25.2871 23.4677 24.4748 23.4677 23.6948 23.5C22.9471 23.5323 22.4273 23.5323 21.8746 23.5323C21.6473 23.5323 21.5498 23.6621 21.5498 23.89V57.3326C21.5498 57.6251 21.6796 57.7555 21.9398 57.7555H28.245C28.4723 57.7226 28.635 57.5276 28.6021 57.3003V46.8678C29.2194 46.8678 29.6746 46.8678 30 46.9C30.3248 46.9323 30.8446 46.9323 31.6246 46.9323C34.29 46.9323 36.7275 46.6398 38.9371 45.8275C41.0498 45.0475 42.87 43.6825 44.1698 41.8623C45.4698 40.0423 46.1198 37.7348 46.1198 34.9398C46.1198 33.4773 45.8602 32.08 45.3727 30.715C44.8561 29.3244 44.0469 28.0609 42.9998 27.01C41.7639 25.8094 40.2762 24.8989 38.6446 24.3446C36.8244 23.6621 34.6148 23.3373 31.95 23.3373ZM32.6752 29.7388C33.833 29.7608 34.9603 29.9631 36.0121 30.3896C36.9548 30.7473 37.7348 31.3975 38.2875 32.2421C38.8059 33.1162 39.0652 34.1197 39.0352 35.1355C39.0352 36.565 38.7098 37.6705 38.0273 38.4828C37.3119 39.295 36.4021 39.913 35.3625 40.2055C34.1596 40.5955 32.8921 40.7898 31.6246 40.7898H29.9019C29.5119 40.7898 29.0902 40.7575 28.635 40.7253V29.8052C28.8623 29.7723 29.3175 29.74 29.9677 29.773C30.585 29.74 31.3321 29.74 32.1773 29.74C32.3439 29.736 32.5098 29.7356 32.6752 29.7388ZM59.9325 31.3982C57.6248 31.3982 55.7071 31.7552 54.18 32.5352C52.7827 33.1855 51.5798 34.225 50.7675 35.5248C50.0527 36.7278 49.6621 38.0598 49.6621 39.4577C49.6343 40.6075 49.8912 41.7463 50.4098 42.7727C51.0176 43.8658 51.8616 44.8094 52.8802 45.535C54.3099 46.5129 55.8613 47.2996 57.495 47.875C59.0873 48.4923 60.1598 48.9798 60.6802 49.4021C61.2 49.8251 61.4602 50.2473 61.4602 50.7025C61.4602 51.2875 61.1025 51.8403 60.5827 52.0676C59.9977 52.3601 59.1202 52.5228 57.885 52.5228C56.5852 52.5228 55.2848 52.3601 54.0496 52.0353C52.6313 51.7185 51.2715 51.1812 50.0198 50.443C49.9223 50.3778 49.8248 50.3455 49.7273 50.4107C49.6298 50.4753 49.5975 50.605 49.5975 50.7025V56.3575C49.5652 56.6178 49.7273 56.845 49.9552 56.9748C51.0091 57.4672 52.1239 57.817 53.2702 58.015C54.7327 58.3075 56.1946 58.4373 57.6894 58.4373C60.0294 58.4373 61.98 58.0803 63.5723 57.3978C65.0348 56.8128 66.3023 55.8055 67.2121 54.5051C68.0642 53.2266 68.5063 51.7189 68.4796 50.1828C68.5117 49.0223 68.2549 47.8721 67.7325 46.8355C67.1146 45.73 66.2371 44.8203 65.1646 44.1378C63.5956 43.1524 61.9157 42.356 60.1598 41.7648C59.3757 41.4403 58.6057 41.0825 57.8521 40.6923C57.4298 40.465 57.0398 40.1725 56.7473 39.8148C56.5523 39.5546 56.4225 39.2627 56.4225 38.9702C56.4225 38.6777 56.52 38.353 56.6821 38.0928C56.91 37.768 57.2671 37.54 57.6894 37.4425C58.3073 37.2805 58.9898 37.1823 59.6394 37.2146C60.8746 37.2146 62.0769 37.3773 63.2798 37.6375C64.3852 37.8648 65.4248 38.2225 66.3998 38.743C66.5296 38.8075 66.6923 38.8075 66.9848 38.743C67.0356 38.7053 67.0768 38.6562 67.1051 38.5997C67.1333 38.5432 67.1479 38.4808 67.1475 38.4175V33.1203C67.1475 32.9898 67.1146 32.86 67.0823 32.7302C67.0171 32.6005 66.8873 32.47 66.7575 32.4377C65.8611 32.0714 64.9219 31.8201 63.9623 31.69C62.6278 31.4957 61.2811 31.3986 59.9325 31.3982Z" fill="#31A8FF"/>
</g>
</g>
<defs>
<filter id="filter0_d_283_465" x="0" y="-0.974976" width="86" height="86" filterUnits="userSpaceOnUse" color-interpolation-filters="sRGB">
<feFlood flood-opacity="0" result="BackgroundImageFix"/>
<feColorMatrix in="SourceAlpha" type="matrix" values="0 0 0 0 0 0 0 0 0 0 0 0 0 0 0 0 0 0 127 0" result="hardAlpha"/>
<feOffset/>
<feGaussianBlur stdDeviation="2"/>
<feComposite in2="hardAlpha" operator="out"/>
<feColorMatrix type="matrix" values="0 0 0 0 0 0 0 0 0 0 0 0 0 0 0 0 0 0 0.25 0"/>
<feBlend mode="normal" in2="BackgroundImageFix" result="effect1_dropShadow_283_465"/>
<feBlend mode="normal" in="SourceGraphic" in2="effect1_dropShadow_283_465" result="shape"/>
</filter>
<clipPath id="clip0_283_465">
<rect width="78" height="78" fill="white" transform="translate(4 3.02502)"/>
</clipPath>
</defs>
</svg>
