<svg width="70" height="70" viewBox="0 0 70 70" fill="none" xmlns="http://www.w3.org/2000/svg">
<path d="M53.5938 0H16.4062C7.34533 0 0 7.34533 0 16.4062V53.5938C0 62.6547 7.34533 70 16.4062 70H53.5938C62.6547 70 70 62.6547 70 53.5938V16.4062C70 7.34533 62.6547 0 53.5938 0Z" fill="#F4F2ED"/>
<path d="M9.21962 27.4006C9.21962 27.4006 7.92489 26.4674 9.47856 25.2213L13.0978 21.9849C13.0978 21.9849 14.1336 20.8953 15.2284 21.8447L48.6285 47.1319V59.2577C48.6285 59.2577 48.6124 61.162 46.1687 60.9514L9.21962 27.4006Z" fill="#2489CA"/>
<path d="M17.8283 35.2166L9.21944 43.0432C9.21944 43.0432 8.33459 43.7013 9.21944 44.8774L13.2163 48.5127C13.2163 48.5127 14.1656 49.5324 15.5681 48.3724L24.6949 41.452L17.8283 35.2166Z" fill="#1070B3"/>
<path d="M32.9418 35.2813L48.7303 23.2255L48.6278 11.1644C48.6278 11.1644 47.9535 8.53205 45.7042 9.90224L24.6943 29.024L32.9418 35.2813Z" fill="#0877B9"/>
<path d="M46.1679 60.9678C47.085 61.9062 48.1962 61.5989 48.1962 61.5989L60.5001 55.536C62.0751 54.4625 61.8539 53.1303 61.8539 53.1303V16.9252C61.8539 15.3338 60.2247 14.7839 60.2247 14.7839L49.5609 9.64331C47.2307 8.20311 45.7041 9.90225 45.7041 9.90225C45.7041 9.90225 47.6674 8.48913 48.6277 11.1644V59.0365C48.6289 59.363 48.5571 59.6856 48.4174 59.9807C48.1369 60.547 47.5274 61.0755 46.0656 60.8543L46.1679 60.9678Z" fill="#3C99D4"/>
</svg>
