<svg width="22" height="22" viewBox="0 0 22 22" fill="none" xmlns="http://www.w3.org/2000/svg">
<path d="M1.88833 9.22168C2.35583 9.68918 3.09833 9.73502 3.6025 9.31335C7.88333 5.79335 14.0983 5.79335 18.3883 9.30418C18.9017 9.72585 19.6533 9.68918 20.1208 9.22168C20.6617 8.68085 20.625 7.78252 20.0292 7.29668C14.795 3.01585 7.22333 3.01585 1.98 7.29668C1.38416 7.77335 1.33833 8.67168 1.88833 9.22168ZM9.00166 16.335L10.3492 17.6825C10.7067 18.04 11.2842 18.04 11.6417 17.6825L12.9892 16.335C13.42 15.9042 13.3283 15.1617 12.7783 14.8775C12.2239 14.5928 11.6095 14.4443 10.9862 14.4443C10.363 14.4443 9.74863 14.5928 9.19416 14.8775C8.67166 15.1617 8.57083 15.9042 9.00166 16.335ZM5.5825 12.9159C6.03166 13.365 6.7375 13.4109 7.26 13.035C8.35342 12.2607 9.66019 11.8449 11 11.8449C12.3398 11.8449 13.6466 12.2607 14.74 13.035C15.2625 13.4017 15.9683 13.365 16.4175 12.9159L16.4267 12.9067C16.9767 12.3567 16.94 11.4217 16.3075 10.9725C13.1542 8.69002 8.855 8.69002 5.6925 10.9725C5.06 11.4309 5.02333 12.3567 5.5825 12.9159Z" fill="white"/>
</svg>
